<svg width="41" height="40" viewBox="0 0 41 40" fill="none" xmlns="http://www.w3.org/2000/svg">
<path d="M10.1781 30.8839C10.2076 30.8342 10.2379 30.7848 10.2688 30.7356C12.5263 27.1469 13.8332 22.9029 13.8332 18.3333C13.8332 14.6514 16.8179 11.6667 20.4998 11.6667C24.1817 11.6667 27.1665 14.6514 27.1665 18.3333C27.1665 20.0284 27.0511 21.6976 26.8277 23.3333M23.2987 34.7394C24.3182 32.7044 25.154 30.5615 25.7845 28.3333M32.1828 30.2199C33.2578 26.4428 33.8333 22.4553 33.8333 18.3333C33.8333 10.9695 27.8638 5 20.5 5C18.0714 5 15.7945 5.6493 13.8333 6.78376M5.5 25.6069C6.56776 23.4089 7.16667 20.9411 7.16667 18.3333C7.16667 15.9048 7.81596 13.6278 8.95043 11.6667M20.4998 18.3333C20.4998 24.1953 18.8185 29.6647 15.9118 34.2854" stroke="#90D0BF" stroke-width="3" stroke-linecap="round" stroke-linejoin="round"/>
</svg>
