<svg width="32" height="34" viewBox="0 0 32 34" fill="none" xmlns="http://www.w3.org/2000/svg">
<path d="M25.8219 27.8839C25.7924 27.8342 25.7621 27.7848 25.7312 27.7356C23.4737 24.1469 22.1668 19.9029 22.1668 15.3333C22.1668 11.6514 19.1821 8.66667 15.5002 8.66667C11.8183 8.66667 8.83349 11.6514 8.83349 15.3333C8.83349 17.0284 8.94889 18.6976 9.17229 20.3333M12.7013 31.7394C11.6818 29.7044 10.846 27.5615 10.2155 25.3333M3.81724 27.2199C2.74218 23.4428 2.16667 19.4553 2.16667 15.3333C2.16667 7.96954 8.1362 2 15.5 2C17.9286 2 20.2055 2.6493 22.1667 3.78376M30.5 22.6069C29.4322 20.4089 28.8333 17.9411 28.8333 15.3333C28.8333 12.9048 28.184 10.6278 27.0496 8.66667M15.5002 15.3333C15.5002 21.1953 17.1815 26.6647 20.0882 31.2854" stroke="#0E9874" stroke-width="3" stroke-linecap="round" stroke-linejoin="round"/>
</svg>
